<?xml version="1.0" encoding="UTF-8"?>
<svg xmlns="http://www.w3.org/2000/svg" xmlns:xlink="http://www.w3.org/1999/xlink" width="216pt" height="229pt" viewBox="0 0 216 229" version="1.1">
<defs>
<filter id="alpha" filterUnits="objectBoundingBox" x="0%" y="0%" width="100%" height="100%">
  <feColorMatrix type="matrix" in="SourceGraphic" values="0 0 0 0 1 0 0 0 0 1 0 0 0 0 1 0 0 0 1 0"/>
</filter>
<mask id="mask0">
  <g filter="url(#alpha)">
<rect x="0" y="0" width="216" height="229" style="fill:rgb(0%,0%,0%);fill-opacity:0.501961;stroke:none;"/>
  </g>
</mask>
<clipPath id="clip1">
  <rect x="0" y="0" width="216" height="229"/>
</clipPath>
<g id="surface5" clip-path="url(#clip1)">
<path style=" stroke:none;fill-rule:nonzero;fill:rgb(100%,100%,100%);fill-opacity:1;" d="M 45.386719 228.476562 L 45.386719 215.570312 L 49.207031 215.570312 C 50.265625 215.484375 51.320312 215.800781 52.21875 216.472656 C 52.910156 217.089844 53.296875 218.082031 53.242188 219.109375 C 53.25 219.699219 53.105469 220.28125 52.828125 220.777344 C 52.546875 221.261719 52.148438 221.632812 51.679688 221.835938 C 52.207031 221.976562 52.675781 222.328125 53.007812 222.835938 C 53.335938 223.371094 53.507812 224.019531 53.488281 224.679688 C 53.550781 225.757812 53.179688 226.804688 52.484375 227.503906 C 51.652344 228.203125 50.644531 228.546875 49.625 228.480469 Z M 47.636719 222.855469 L 47.636719 226.339844 L 49.5625 226.339844 C 50.007812 226.371094 50.445312 226.214844 50.800781 225.894531 C 51.101562 225.582031 51.265625 225.128906 51.246094 224.65625 C 51.296875 224.15625 51.148438 223.65625 50.84375 223.304688 C 50.542969 222.953125 50.117188 222.789062 49.695312 222.859375 Z M 47.636719 220.972656 L 49.300781 220.972656 C 50.433594 220.949219 51 220.414062 51 219.371094 C 51.039062 218.890625 50.878906 218.421875 50.570312 218.105469 C 50.160156 217.8125 49.6875 217.675781 49.210938 217.722656 L 47.632812 217.722656 Z M 70.363281 222.3125 C 70.382812 223.460938 70.1875 224.601562 69.792969 225.652344 C 69.445312 226.570312 68.875 227.339844 68.15625 227.875 C 67.425781 228.402344 66.582031 228.675781 65.726562 228.65625 C 64.875 228.675781 64.035156 228.40625 63.308594 227.886719 C 62.589844 227.359375 62.015625 226.597656 61.660156 225.691406 C 61.257812 224.660156 61.054688 223.53125 61.070312 222.398438 L 61.070312 221.75 C 61.050781 220.59375 61.246094 219.445312 61.648438 218.394531 C 62 217.476562 62.570312 216.703125 63.289062 216.167969 C 64.019531 215.644531 64.859375 215.375 65.714844 215.394531 C 66.566406 215.375 67.40625 215.644531 68.136719 216.167969 C 68.855469 216.703125 69.425781 217.476562 69.777344 218.394531 C 70.179688 219.445312 70.375 220.585938 70.355469 221.738281 Z M 68.085938 221.726562 C 68.144531 220.648438 67.929688 219.574219 67.472656 218.644531 C 67.082031 217.953125 66.417969 217.554688 65.71875 217.589844 C 65.023438 217.554688 64.363281 217.949219 63.972656 218.628906 C 63.515625 219.550781 63.296875 220.617188 63.351562 221.683594 L 63.351562 222.3125 C 63.300781 223.382812 63.511719 224.449219 63.964844 225.378906 C 64.347656 226.09375 65.023438 226.511719 65.734375 226.476562 C 66.429688 226.511719 67.089844 226.113281 67.472656 225.425781 C 67.925781 224.5 68.136719 223.433594 68.085938 222.363281 Z M 87.175781 222.3125 C 87.199219 223.460938 87.003906 224.601562 86.609375 225.652344 C 86.261719 226.566406 85.695312 227.335938 84.980469 227.867188 C 84.25 228.398438 83.40625 228.671875 82.550781 228.652344 C 81.699219 228.667969 80.859375 228.402344 80.128906 227.882812 C 79.414062 227.355469 78.839844 226.59375 78.484375 225.6875 C 78.078125 224.652344 77.878906 223.527344 77.890625 222.390625 L 77.890625 221.75 C 77.871094 220.59375 78.070312 219.445312 78.472656 218.394531 C 78.824219 217.476562 79.394531 216.703125 80.113281 216.167969 C 80.84375 215.644531 81.683594 215.375 82.535156 215.394531 C 83.390625 215.375 84.230469 215.644531 84.957031 216.167969 C 85.675781 216.707031 86.242188 217.480469 86.589844 218.394531 C 86.992188 219.445312 87.191406 220.589844 87.167969 221.742188 Z M 84.894531 221.730469 C 84.953125 220.65625 84.738281 219.582031 84.28125 218.648438 C 83.890625 217.957031 83.226562 217.558594 82.527344 217.59375 C 81.832031 217.558594 81.171875 217.953125 80.78125 218.636719 C 80.324219 219.558594 80.105469 220.621094 80.160156 221.6875 L 80.160156 222.316406 C 80.109375 223.386719 80.320312 224.453125 80.773438 225.382812 C 81.15625 226.097656 81.828125 226.515625 82.542969 226.480469 C 83.238281 226.515625 83.898438 226.117188 84.28125 225.429688 C 84.734375 224.5 84.949219 223.433594 84.894531 222.359375 Z M 102.601562 217.726562 L 99.261719 217.726562 L 99.261719 228.476562 L 97.007812 228.476562 L 97.007812 217.726562 L 93.71875 217.726562 L 93.71875 215.570312 L 102.597656 215.570312 Z M 118.457031 224.179688 C 118.425781 225.4375 117.953125 226.625 117.15625 227.457031 C 116.289062 228.292969 115.1875 228.71875 114.070312 228.65625 C 112.8125 228.726562 111.597656 228.109375 110.769531 226.984375 C 109.914062 225.675781 109.488281 224.046875 109.570312 222.398438 L 109.570312 221.613281 C 109.550781 220.484375 109.738281 219.367188 110.121094 218.335938 C 110.457031 217.4375 111.011719 216.679688 111.714844 216.160156 C 112.433594 215.644531 113.261719 215.378906 114.105469 215.402344 C 115.207031 215.339844 116.292969 215.765625 117.144531 216.597656 C 117.945312 217.46875 118.421875 218.675781 118.476562 219.957031 L 116.226562 219.957031 C 116.226562 219.289062 116.015625 218.640625 115.636719 218.144531 C 115.203125 217.730469 114.652344 217.53125 114.097656 217.582031 C 113.4375 217.53125 112.800781 217.890625 112.417969 218.535156 C 111.988281 219.433594 111.789062 220.460938 111.84375 221.488281 L 111.84375 222.464844 C 111.777344 223.523438 111.960938 224.582031 112.375 225.523438 C 112.75 226.179688 113.394531 226.546875 114.0625 226.492188 C 114.621094 226.542969 115.175781 226.339844 115.617188 225.925781 C 115.992188 225.457031 116.203125 224.835938 116.207031 224.1875 Z M 132.3125 225.816406 L 128.375 225.816406 L 127.625 228.484375 L 125.242188 228.484375 L 129.300781 215.578125 L 131.382812 215.578125 L 135.464844 228.484375 L 133.078125 228.484375 Z M 128.980469 223.664062 L 131.707031 223.664062 L 130.335938 218.832031 Z M 145.640625 215.570312 L 148.441406 224.929688 L 151.222656 215.570312 L 154.171875 215.570312 L 154.171875 228.476562 L 151.917969 228.476562 L 151.917969 224.949219 L 152.144531 218.859375 L 149.203125 228.476562 L 147.664062 228.476562 L 144.726562 218.867188 L 144.953125 224.949219 L 144.953125 228.476562 L 142.699219 228.476562 L 142.699219 215.570312 Z M 164.613281 223.929688 L 164.613281 228.476562 L 162.359375 228.476562 L 162.359375 215.570312 L 166.613281 215.570312 C 167.359375 215.554688 168.097656 215.734375 168.773438 216.105469 C 169.367188 216.429688 169.863281 216.953125 170.207031 217.613281 C 170.546875 218.289062 170.71875 219.058594 170.707031 219.84375 C 170.753906 220.988281 170.347656 222.089844 169.613281 222.835938 C 168.742188 223.617188 167.667969 224.007812 166.574219 223.933594 Z M 164.613281 221.777344 L 166.617188 221.777344 C 167.105469 221.816406 167.589844 221.640625 167.976562 221.28125 C 168.296875 220.914062 168.46875 220.398438 168.441406 219.867188 C 168.464844 219.304688 168.292969 218.75 167.972656 218.335938 C 167.625 217.929688 167.15625 217.710938 166.667969 217.730469 L 164.609375 217.730469 Z M 164.613281 221.777344 "/>
</g>
</defs>
<g id="surface1">
<path style=" stroke:none;fill-rule:nonzero;fill:rgb(1.568627%,82.745098%,38.039216%);fill-opacity:1;" d="M 144.332031 26.371094 C 133.585938 19.390625 122.707031 12.257812 111.960938 5.273438 C 109.746094 3.878906 107.09375 3.878906 104.882812 5.273438 C 94.136719 12.257812 83.386719 19.390625 72.640625 26.371094 C 70.542969 27.695312 69.199219 30.234375 69.101562 33.042969 L 69.101562 75.550781 C 69.136719 78.460938 70.554688 81.105469 72.769531 82.375 C 75.785156 84.238281 78.667969 86.253906 81.683594 88.113281 L 99.246094 99.59375 L 104.621094 103.164062 C 104.984375 103.4375 105.382812 103.648438 105.800781 103.789062 L 106.328125 104.105469 L 106.460938 104.105469 C 108.257812 104.6875 110.171875 104.460938 111.835938 103.476562 C 122.582031 96.496094 133.328125 89.359375 144.078125 82.378906 C 146.277344 81.089844 147.691406 78.457031 147.746094 75.554688 L 147.746094 33.046875 C 147.667969 30.269531 146.375 27.742188 144.332031 26.371094 Z M 97.804688 74 L 89.417969 83.152344 C 89.3125 83.273438 89.164062 83.328125 89.019531 83.308594 L 88.886719 83.308594 C 88.804688 83.28125 88.742188 83.207031 88.714844 83.113281 C 88.6875 83.019531 88.703125 82.914062 88.753906 82.835938 L 91.769531 69.804688 C 92.054688 68.363281 92.945312 67.191406 94.128906 66.703125 L 94.261719 66.546875 C 94.570312 66.445312 94.90625 66.5 95.179688 66.703125 C 95.710938 67.175781 96.097656 67.480469 96.621094 67.945312 C 97.117188 68.363281 97.640625 68.726562 98.195312 69.03125 C 98.507812 69.191406 98.714844 69.554688 98.722656 69.960938 L 98.988281 70.273438 C 99.121094 71.667969 98.679688 73.050781 97.804688 73.996094 Z M 106.457031 65 C 106.324219 65 106.324219 65.15625 106.191406 65.15625 L 103.570312 64.84375 C 103.28125 64.800781 102.992188 64.917969 102.78125 65.15625 L 99.898438 68.257812 C 99.792969 68.378906 99.648438 68.4375 99.5 68.417969 C 98.101562 67.671875 96.785156 66.734375 95.570312 65.625 C 95.4375 65.46875 95.304688 65.308594 95.4375 65.152344 L 96.355469 60.65625 C 96.441406 60.339844 96.390625 59.992188 96.222656 59.726562 L 94.78125 57.089844 C 94.78125 56.929688 94.648438 56.929688 94.648438 56.773438 C 94.648438 56.460938 94.78125 56.148438 94.78125 55.6875 L 94.78125 55.53125 C 94.78125 55.53125 94.914062 55.375 94.914062 55.53125 C 96.09375 56.460938 101.074219 60.03125 101.074219 60.03125 C 101.074219 60.03125 106.054688 63.597656 107.234375 64.53125 C 107.335938 64.652344 107.386719 64.828125 107.367188 65 Z M 124.019531 36.609375 L 124.152344 36.765625 L 126.773438 37.238281 L 126.90625 37.238281 C 127.433594 37.394531 128.085938 38.167969 127.167969 39.566406 L 116.160156 57.25 C 116.003906 57.375 115.816406 57.429688 115.628906 57.40625 L 111.171875 54.148438 C 110.730469 53.835938 110.175781 53.835938 109.730469 54.148438 L 108.289062 55.234375 C 107.84375 55.542969 107.292969 55.542969 106.847656 55.234375 C 106 54.476562 104.804688 54.613281 104.097656 55.546875 C 102.234375 57.273438 99.648438 57.398438 97.671875 55.863281 L 91.773438 51.519531 L 91.511719 51.203125 C 91.148438 50.847656 90.925781 50.324219 90.902344 49.765625 C 90.875 49.207031 91.050781 48.660156 91.378906 48.257812 C 91.929688 47.203125 93.089844 46.855469 94 47.480469 L 95.179688 48.257812 L 95.308594 48.257812 C 95.441406 48.414062 95.574219 48.257812 95.574219 48.101562 L 95.839844 46.238281 C 95.839844 46.082031 95.839844 45.925781 95.707031 45.925781 L 95.441406 45.769531 C 94.929688 45.359375 94.757812 44.554688 95.046875 43.90625 C 95.335938 43.308594 95.980469 43.097656 96.488281 43.4375 L 104.480469 49.175781 L 104.613281 49.175781 C 104.746094 49.332031 104.878906 49.175781 105.011719 49.019531 L 113.269531 35.675781 C 113.609375 35.160156 114.167969 34.917969 114.710938 35.050781 L 116.808594 35.363281 L 118.25 35.675781 C 118.25 35.832031 118.382812 35.675781 118.382812 35.675781 C 118.515625 35.519531 118.515625 35.519531 118.382812 35.519531 C 117.847656 35.042969 117.730469 34.148438 118.117188 33.503906 L 120.867188 29.003906 C 121.191406 28.554688 121.683594 28.316406 122.179688 28.378906 L 127.421875 29.308594 C 127.628906 29.3125 127.824219 29.425781 127.953125 29.621094 L 128.085938 29.777344 C 128.347656 30.089844 128.214844 30.554688 127.953125 30.863281 C 127.953125 30.863281 125.332031 35.050781 124.410156 36.605469 L 124.410156 36.761719 C 123.753906 36.300781 123.753906 36.453125 124.015625 36.609375 Z M 124.019531 36.609375 "/>
<path style=" stroke:none;fill-rule:nonzero;fill:rgb(100%,100%,100%);fill-opacity:1;" d="M 119.167969 10.082031 C 123.230469 6.359375 125.457031 5.585938 128.867188 5.585938 C 129.863281 5.585938 130.847656 5.851562 131.75 6.363281 C 134.765625 8.378906 136.074219 14.429688 135.15625 23.117188 L 139.480469 25.910156 C 140.921875 13.5 138.953125 4.964844 133.847656 1.554688 C 132.246094 0.496094 130.4375 -0.0390625 128.601562 0 C 124.015625 0 120.347656 1.554688 114.578125 6.984375 C 116.285156 8.066406 117.726562 9.152344 119.167969 10.082031 Z M 119.167969 10.082031 "/>
<path style=" stroke:none;fill-rule:nonzero;fill:rgb(100%,100%,100%);fill-opacity:1;" d="M 69.105469 64.371094 C 63.074219 60.957031 61.632812 58.164062 61.632812 54.289062 C 61.632812 50.253906 65.039062 46.375 71.199219 42.960938 L 71.199219 36.765625 C 62.027344 41.265625 56.914062 47.46875 56.914062 54.140625 C 56.914062 60.964844 59.929688 65.773438 69.105469 70.273438 Z M 69.105469 64.371094 "/>
<path style=" stroke:none;fill-rule:nonzero;fill:rgb(100%,100%,100%);fill-opacity:1;" d="M 81.292969 20.632812 C 80.503906 12.097656 81.820312 8.53125 84.960938 6.515625 C 85.824219 5.894531 86.835938 5.621094 87.84375 5.738281 C 91.253906 5.738281 95.183594 7.910156 99.242188 11.632812 L 103.566406 8.839844 C 97.929688 3.410156 92.292969 0.308594 87.707031 0.308594 C 85.875 0.269531 84.066406 0.804688 82.464844 1.859375 C 77.351562 5.429688 75.253906 11.324219 76.828125 23.734375 C 78.40625 22.492188 79.851562 21.5625 81.292969 20.632812 Z M 81.292969 20.632812 "/>
<path style=" stroke:none;fill-rule:nonzero;fill:rgb(100%,100%,100%);fill-opacity:1;" d="M 147.609375 38.316406 L 147.609375 44.210938 C 153.636719 47.625 155.078125 50.417969 155.078125 54.296875 C 155.078125 58.328125 151.671875 62.207031 145.511719 65.621094 L 145.511719 71.824219 C 154.683594 67.324219 159.796875 61.121094 159.796875 54.449219 C 159.796875 47.625 156.914062 42.816406 147.609375 38.316406 Z M 147.609375 38.316406 "/>
<path style=" stroke:none;fill-rule:nonzero;fill:rgb(100%,100%,100%);fill-opacity:1;" d="M 97.671875 98.351562 C 93.609375 102.074219 91.382812 102.851562 87.972656 102.851562 C 86.976562 102.851562 85.992188 102.585938 85.089844 102.074219 C 81.945312 100.058594 80.765625 93.851562 81.683594 85.320312 C 80.242188 84.390625 78.667969 83.457031 77.226562 82.371094 C 75.785156 94.628906 77.757812 103.160156 82.730469 106.574219 C 84.332031 107.628906 86.140625 108.164062 87.972656 108.125 C 92.5625 108.28125 96.359375 106.726562 102.128906 101.296875 Z M 97.671875 98.351562 "/>
<path style=" stroke:none;fill-rule:nonzero;fill:rgb(100%,100%,100%);fill-opacity:1;" d="M 135.421875 87.960938 C 136.207031 96.492188 134.765625 100.058594 131.75 102.074219 C 130.886719 102.695312 129.875 102.96875 128.867188 102.851562 C 125.460938 102.851562 121.527344 100.679688 117.339844 96.957031 C 115.898438 97.886719 114.453125 98.820312 112.882812 99.75 C 118.648438 105.335938 124.152344 108.4375 128.871094 108.4375 C 130.703125 108.476562 132.511719 107.941406 134.113281 106.886719 C 139.226562 103.316406 141.453125 97.421875 139.75 85.015625 C 138.433594 85.941406 136.863281 86.875 135.421875 87.960938 Z M 135.421875 87.960938 "/>
<use xlink:href="#surface5" mask="url(#mask0)"/>
<path style=" stroke:none;fill-rule:nonzero;fill:rgb(100%,100%,100%);fill-opacity:1;" d="M 33.433594 185.855469 C 31.703125 188.179688 29.476562 189.910156 26.988281 190.875 C 24.023438 192.097656 20.898438 192.703125 17.757812 192.65625 C 14.496094 192.738281 11.277344 191.792969 8.429688 189.90625 C 5.734375 188.046875 3.574219 185.265625 2.238281 181.929688 C 0.71875 178.085938 -0.046875 173.882812 0 169.640625 L 0 166.34375 C -0.0859375 162.027344 0.617188 157.734375 2.070312 153.769531 C 3.316406 150.410156 5.394531 147.574219 8.03125 145.640625 C 10.796875 143.714844 13.957031 142.738281 17.164062 142.828125 C 22.023438 142.828125 25.824219 144.199219 28.5625 146.941406 C 31.445312 150.027344 33.191406 154.324219 33.429688 158.917969 L 25.214844 158.917969 C 25.03125 156.597656 24.148438 154.429688 22.722656 152.820312 C 21.210938 151.445312 19.328125 150.757812 17.421875 150.890625 C 14.824219 150.730469 12.339844 152.179688 10.867188 154.71875 C 9.363281 157.273438 8.605469 161.070312 8.585938 166.109375 L 8.585938 169.210938 C 8.585938 174.292969 9.402344 178.136719 11.035156 180.734375 C 12.730469 183.367188 15.421875 184.832031 18.210938 184.632812 C 21.382812 184.632812 23.644531 183.832031 24.992188 182.234375 L 24.992188 173.875 L 17.308594 173.875 L 17.308594 166.511719 L 33.433594 166.511719 Z M 38.46875 173.628906 C 38.417969 170.324219 39.015625 167.054688 40.214844 164.070312 C 41.304688 161.363281 43.054688 159.101562 45.238281 157.574219 C 47.550781 156.003906 50.183594 155.207031 52.847656 155.277344 C 56.574219 155.101562 60.199219 156.710938 62.910156 159.738281 C 65.605469 162.980469 67.160156 167.316406 67.257812 171.863281 L 67.3125 174.328125 C 67.511719 179.195312 66.109375 183.964844 63.402344 187.636719 C 60.683594 191.035156 56.851562 192.867188 52.902344 192.65625 C 48.953125 192.867188 45.121094 191.046875 42.394531 187.660156 C 39.777344 184.328125 38.46875 179.800781 38.46875 174.070312 Z M 46.601562 174.328125 C 46.453125 177.078125 47.023438 179.816406 48.234375 182.171875 C 49.292969 183.964844 51.054688 184.992188 52.902344 184.886719 C 54.726562 184.972656 56.460938 183.964844 57.519531 182.203125 C 58.625 180.414062 59.179688 177.558594 59.179688 173.628906 C 59.320312 170.890625 58.738281 168.167969 57.519531 165.832031 C 56.46875 164.023438 54.703125 162.976562 52.847656 163.070312 C 51.011719 162.976562 49.265625 164.015625 48.234375 165.816406 C 46.988281 168.398438 46.417969 171.363281 46.605469 174.332031 Z M 94.101562 179.257812 C 94.179688 177.570312 93.550781 175.941406 92.414062 174.910156 C 90.535156 173.492188 88.488281 172.417969 86.335938 171.71875 C 83.945312 170.855469 81.617188 169.746094 79.386719 168.40625 C 74.734375 165.429688 72.40625 161.421875 72.40625 156.382812 C 72.378906 153.867188 73.035156 151.410156 74.277344 149.371094 C 75.652344 147.199219 77.515625 145.53125 79.652344 144.558594 C 82.152344 143.367188 84.824219 142.78125 87.519531 142.832031 C 90.210938 142.777344 92.878906 143.417969 95.335938 144.714844 C 97.503906 145.84375 99.355469 147.683594 100.671875 150.015625 C 101.945312 152.332031 102.605469 155.042969 102.570312 157.808594 L 94.128906 157.808594 C 94.21875 155.855469 93.570312 153.957031 92.355469 152.632812 C 90.945312 151.308594 89.167969 150.648438 87.371094 150.78125 C 85.667969 150.660156 83.976562 151.203125 82.5625 152.332031 C 81.453125 153.269531 80.808594 154.796875 80.839844 156.410156 C 80.871094 158.058594 81.636719 159.5625 82.851562 160.371094 C 84.695312 161.699219 86.6875 162.707031 88.773438 163.371094 C 93.574219 165.078125 97.074219 167.199219 99.269531 169.730469 C 101.441406 172.195312 102.636719 175.628906 102.5625 179.191406 C 102.695312 183.070312 101.1875 186.777344 98.539062 189.074219 C 95.355469 191.636719 91.550781 192.894531 87.703125 192.652344 C 84.742188 192.699219 81.808594 192 79.089844 190.605469 C 76.707031 189.4375 74.652344 187.488281 73.167969 184.992188 C 71.789062 182.550781 71.078125 179.667969 71.125 176.730469 L 79.597656 176.730469 C 79.597656 182.082031 82.296875 184.757812 87.703125 184.757812 C 89.359375 184.875 91 184.367188 92.398438 183.308594 C 93.515625 182.390625 94.15625 180.867188 94.105469 179.261719 Z M 117.488281 147.082031 L 117.488281 155.941406 L 122.695312 155.941406 L 122.695312 163 L 117.488281 163 L 117.488281 180.988281 C 117.410156 182.003906 117.640625 183.019531 118.136719 183.851562 C 118.824219 184.535156 119.71875 184.847656 120.613281 184.71875 C 121.414062 184.726562 122.214844 184.648438 123.003906 184.484375 L 123.003906 191.78125 C 121.40625 192.355469 119.746094 192.648438 118.078125 192.644531 C 112.375 192.644531 109.46875 189.238281 109.355469 182.421875 L 109.355469 163.003906 L 104.910156 163.003906 L 104.910156 155.945312 L 109.355469 155.945312 L 109.355469 147.085938 Z M 144.871094 191.980469 C 144.453125 190.960938 144.179688 189.871094 144.054688 188.75 C 142.109375 191.339844 139.292969 192.765625 136.367188 192.648438 C 133.65625 192.765625 131.007812 191.671875 128.945312 189.582031 C 127.03125 187.664062 125.953125 184.824219 126.007812 181.855469 C 125.859375 178.394531 127.210938 175.078125 129.59375 173.0625 C 131.988281 171.019531 135.445312 169.988281 139.964844 169.964844 L 143.707031 169.964844 L 143.707031 167.898438 C 143.769531 166.457031 143.382812 165.035156 142.625 163.902344 C 141.730469 162.820312 140.476562 162.273438 139.203125 162.402344 C 138.046875 162.324219 136.902344 162.738281 135.980469 163.570312 C 135.195312 164.363281 134.765625 165.542969 134.816406 166.765625 L 126.683594 166.765625 C 126.679688 164.675781 127.253906 162.636719 128.316406 160.964844 C 129.5 159.097656 131.097656 157.652344 132.929688 156.785156 C 135.050781 155.742188 137.332031 155.226562 139.628906 155.269531 C 142.851562 155.0625 146.027344 156.253906 148.5625 158.617188 C 150.820312 160.988281 152.042969 164.457031 151.875 168.027344 L 151.875 183.648438 C 151.765625 186.3125 152.179688 188.96875 153.085938 191.410156 L 153.085938 191.976562 Z M 138.144531 185.289062 C 139.300781 185.300781 140.441406 184.972656 141.464844 184.339844 C 142.417969 183.777344 143.203125 182.890625 143.71875 181.789062 L 143.71875 175.59375 L 140.679688 175.59375 C 136.609375 175.59375 134.441406 177.257812 134.179688 180.589844 L 134.152344 181.15625 C 134.125 182.28125 134.515625 183.363281 135.21875 184.121094 C 136.03125 184.941406 137.078125 185.359375 138.144531 185.289062 Z M 170.789062 184.886719 C 172.121094 184.957031 173.425781 184.433594 174.445312 183.421875 C 175.386719 182.433594 175.917969 181.011719 175.90625 179.523438 L 183.53125 179.523438 C 183.527344 181.90625 182.941406 184.238281 181.84375 186.238281 C 180.726562 188.28125 179.152344 189.917969 177.296875 190.96875 C 175.3125 192.105469 173.128906 192.679688 170.921875 192.648438 C 167.046875 192.878906 163.28125 191.082031 160.625 187.734375 C 158.113281 184.460938 156.855469 179.9375 156.855469 174.164062 L 156.855469 173.535156 C 156.648438 168.707031 157.984375 163.960938 160.597656 160.246094 C 163.230469 156.867188 166.992188 155.046875 170.871094 155.28125 C 174.230469 155.089844 177.523438 156.472656 180.03125 159.128906 C 182.367188 161.804688 183.640625 165.523438 183.535156 169.367188 L 175.910156 169.367188 C 175.933594 167.6875 175.414062 166.058594 174.453125 164.820312 C 173.480469 163.636719 172.132812 163 170.742188 163.070312 C 169.050781 162.953125 167.425781 163.878906 166.449219 165.519531 C 165.484375 167.152344 165 169.796875 165 173.460938 L 165 174.460938 C 165 178.167969 165.480469 180.835938 166.433594 182.460938 C 167.433594 184.105469 169.078125 185.027344 170.789062 184.894531 Z M 199.238281 177.523438 L 196.3125 180.992188 L 196.3125 191.984375 L 188.179688 191.984375 L 188.179688 140.820312 L 196.3125 140.820312 L 196.3125 169.167969 L 197.886719 166.769531 L 205.683594 155.945312 L 215.449219 155.945312 L 204.449219 170.96875 L 216.40625 191.984375 L 207.0625 191.984375 Z M 199.238281 177.523438 "/>
</g>
</svg>
