<?xml version="1.0" encoding="UTF-8"?>
<svg xmlns="http://www.w3.org/2000/svg" xmlns:xlink="http://www.w3.org/1999/xlink" width="216pt" height="229pt" viewBox="0 0 216 229" version="1.1">
<defs>
<filter id="alpha" filterUnits="objectBoundingBox" x="0%" y="0%" width="100%" height="100%">
  <feColorMatrix type="matrix" in="SourceGraphic" values="0 0 0 0 1 0 0 0 0 1 0 0 0 0 1 0 0 0 1 0"/>
</filter>
<mask id="mask0">
  <g filter="url(#alpha)">
<rect x="0" y="0" width="216" height="229" style="fill:rgb(0%,0%,0%);fill-opacity:0.501961;stroke:none;"/>
  </g>
</mask>
<clipPath id="clip1">
  <rect x="0" y="0" width="216" height="229"/>
</clipPath>
<g id="surface5" clip-path="url(#clip1)">
<path style=" stroke:none;fill-rule:nonzero;fill:rgb(100%,100%,100%);fill-opacity:1;" d="M 64.683594 229.589844 L 64.683594 216.773438 L 67.324219 216.773438 C 68.054688 216.6875 68.785156 217 69.402344 217.667969 C 69.882812 218.285156 70.148438 219.265625 70.113281 220.285156 C 70.117188 220.875 70.015625 221.453125 69.824219 221.941406 C 69.632812 222.425781 69.355469 222.792969 69.03125 222.996094 C 69.398438 223.132812 69.722656 223.484375 69.949219 223.988281 C 70.175781 224.519531 70.292969 225.164062 70.28125 225.820312 C 70.324219 226.890625 70.066406 227.929688 69.589844 228.625 C 69.011719 229.316406 68.316406 229.660156 67.613281 229.59375 Z M 66.242188 224.007812 L 66.242188 227.46875 L 67.570312 227.46875 C 67.875 227.5 68.179688 227.34375 68.425781 227.023438 C 68.632812 226.71875 68.746094 226.265625 68.734375 225.796875 C 68.769531 225.300781 68.664062 224.804688 68.457031 224.453125 C 68.246094 224.105469 67.953125 223.941406 67.660156 224.011719 Z M 66.242188 222.140625 L 67.386719 222.140625 C 68.171875 222.117188 68.5625 221.585938 68.5625 220.546875 C 68.589844 220.070312 68.476562 219.601562 68.265625 219.292969 C 67.984375 219 67.65625 218.863281 67.324219 218.910156 L 66.234375 218.910156 Z M 81.933594 223.46875 C 81.949219 224.609375 81.816406 225.742188 81.542969 226.785156 C 81.300781 227.695312 80.910156 228.464844 80.414062 228.992188 C 79.90625 229.519531 79.324219 229.789062 78.734375 229.769531 C 78.144531 229.789062 77.566406 229.523438 77.0625 229.003906 C 76.566406 228.480469 76.171875 227.722656 75.925781 226.824219 C 75.648438 225.800781 75.507812 224.679688 75.519531 223.550781 L 75.519531 222.910156 C 75.503906 221.761719 75.640625 220.621094 75.917969 219.578125 C 76.160156 218.667969 76.554688 217.898438 77.050781 217.367188 C 77.554688 216.847656 78.136719 216.578125 78.726562 216.597656 C 79.3125 216.578125 79.894531 216.847656 80.398438 217.367188 C 80.894531 217.898438 81.289062 218.667969 81.53125 219.578125 C 81.808594 220.621094 81.945312 221.753906 81.933594 222.898438 Z M 80.363281 222.886719 C 80.402344 221.816406 80.257812 220.75 79.9375 219.824219 C 79.671875 219.140625 79.210938 218.742188 78.730469 218.777344 C 78.25 218.742188 77.792969 219.132812 77.523438 219.8125 C 77.207031 220.726562 77.058594 221.785156 77.09375 222.84375 L 77.09375 223.46875 C 77.058594 224.53125 77.207031 225.589844 77.519531 226.515625 C 77.78125 227.222656 78.246094 227.636719 78.738281 227.605469 C 79.21875 227.640625 79.675781 227.242188 79.9375 226.558594 C 80.253906 225.640625 80.398438 224.582031 80.363281 223.519531 Z M 93.550781 223.46875 C 93.5625 224.609375 93.429688 225.742188 93.15625 226.785156 C 92.917969 227.691406 92.527344 228.457031 92.03125 228.988281 C 91.527344 229.511719 90.945312 229.785156 90.351562 229.765625 C 89.765625 229.78125 89.1875 229.515625 88.683594 229 C 88.1875 228.476562 87.792969 227.71875 87.546875 226.820312 C 87.265625 225.792969 87.125 224.675781 87.136719 223.546875 L 87.136719 222.910156 C 87.121094 221.761719 87.257812 220.621094 87.539062 219.578125 C 87.78125 218.667969 88.171875 217.898438 88.671875 217.367188 C 89.175781 216.847656 89.753906 216.578125 90.34375 216.597656 C 90.933594 216.578125 91.511719 216.847656 92.015625 217.367188 C 92.511719 217.902344 92.902344 218.667969 93.144531 219.578125 C 93.421875 220.621094 93.558594 221.757812 93.542969 222.902344 Z M 91.972656 222.890625 C 92.011719 221.820312 91.867188 220.753906 91.546875 219.828125 C 91.28125 219.144531 90.820312 218.746094 90.339844 218.78125 C 89.859375 218.746094 89.402344 219.140625 89.132812 219.816406 C 88.816406 220.730469 88.664062 221.789062 88.703125 222.851562 L 88.703125 223.472656 C 88.667969 224.535156 88.816406 225.59375 89.128906 226.519531 C 89.390625 227.226562 89.855469 227.644531 90.347656 227.609375 C 90.828125 227.644531 91.285156 227.246094 91.546875 226.566406 C 91.863281 225.640625 92.011719 224.582031 91.972656 223.515625 Z M 104.203125 218.914062 L 101.894531 218.914062 L 101.894531 229.589844 L 100.339844 229.589844 L 100.339844 218.914062 L 98.066406 218.914062 L 98.066406 216.773438 L 104.199219 216.773438 Z M 115.152344 225.320312 C 115.132812 226.570312 114.808594 227.75 114.257812 228.578125 C 113.65625 229.40625 112.894531 229.832031 112.125 229.769531 C 111.253906 229.839844 110.414062 229.226562 109.84375 228.109375 C 109.253906 226.8125 108.960938 225.191406 109.015625 223.554688 L 109.015625 222.773438 C 109 221.65625 109.132812 220.542969 109.398438 219.515625 C 109.628906 218.628906 110.011719 217.875 110.496094 217.355469 C 110.992188 216.84375 111.566406 216.582031 112.148438 216.605469 C 112.910156 216.542969 113.660156 216.964844 114.246094 217.792969 C 114.800781 218.65625 115.128906 219.855469 115.167969 221.128906 L 113.613281 221.128906 C 113.613281 220.464844 113.46875 219.824219 113.207031 219.328125 C 112.90625 218.917969 112.527344 218.71875 112.144531 218.769531 C 111.6875 218.71875 111.246094 219.078125 110.980469 219.714844 C 110.6875 220.609375 110.546875 221.628906 110.585938 222.652344 L 110.585938 223.621094 C 110.539062 224.671875 110.667969 225.722656 110.953125 226.660156 C 111.210938 227.308594 111.65625 227.675781 112.117188 227.617188 C 112.503906 227.667969 112.890625 227.46875 113.191406 227.058594 C 113.453125 226.589844 113.597656 225.972656 113.597656 225.328125 Z M 124.722656 226.949219 L 122.003906 226.949219 L 121.488281 229.597656 L 119.839844 229.597656 L 122.644531 216.78125 L 124.082031 216.78125 L 126.898438 229.597656 L 125.253906 229.597656 Z M 122.421875 224.8125 L 124.304688 224.8125 L 123.359375 220.011719 Z M 133.929688 216.773438 L 135.863281 226.070312 L 137.785156 216.773438 L 139.820312 216.773438 L 139.820312 229.59375 L 138.265625 229.59375 L 138.265625 226.085938 L 138.421875 220.039062 L 136.390625 229.589844 L 135.328125 229.589844 L 133.296875 220.046875 L 133.453125 226.085938 L 133.453125 229.589844 L 131.898438 229.589844 L 131.898438 216.773438 Z M 147.03125 225.074219 L 147.03125 229.59375 L 145.476562 229.59375 L 145.476562 216.773438 L 148.414062 216.773438 C 148.929688 216.753906 149.4375 216.9375 149.90625 217.300781 C 150.316406 217.625 150.660156 218.148438 150.894531 218.800781 C 151.128906 219.472656 151.25 220.238281 151.242188 221.015625 C 151.273438 222.152344 150.992188 223.25 150.484375 223.988281 C 149.886719 224.765625 149.140625 225.152344 148.386719 225.078125 Z M 147.03125 222.933594 L 148.414062 222.933594 C 148.753906 222.976562 149.089844 222.800781 149.355469 222.441406 C 149.578125 222.078125 149.695312 221.566406 149.679688 221.042969 C 149.691406 220.480469 149.574219 219.929688 149.351562 219.515625 C 149.113281 219.117188 148.789062 218.898438 148.453125 218.917969 L 147.03125 218.917969 Z M 147.03125 222.933594 "/>
</g>
</defs>
<g id="surface1">
<use xlink:href="#surface5" mask="url(#mask0)"/>
<path style=" stroke:none;fill-rule:nonzero;fill:rgb(99.215686%,58.431373%,12.156863%);fill-opacity:1;" d="M 107.558594 110.753906 C 107.351562 110.753906 107.148438 110.703125 106.953125 110.597656 L 84.730469 98.601562 C 83.953125 98.1875 83.402344 97.007812 83.34375 95.625 L 79.121094 3.667969 C 79.078125 2.722656 79.265625 1.789062 79.644531 1.09375 C 80.023438 0.394531 80.554688 0 81.113281 0 L 134.003906 0 C 134.558594 0 135.09375 0.394531 135.46875 1.09375 C 135.847656 1.789062 136.039062 2.722656 135.996094 3.667969 L 131.773438 95.625 C 131.710938 97.007812 131.160156 98.1875 130.382812 98.601562 L 108.160156 110.597656 C 107.964844 110.703125 107.761719 110.753906 107.558594 110.753906 Z M 98.058594 66.265625 C 97.984375 66.265625 97.910156 66.285156 97.839844 66.328125 L 97.734375 66.417969 C 96.875 66.898438 96.214844 68.085938 95.984375 69.574219 L 93.8125 83.105469 C 93.785156 83.222656 93.792969 83.359375 93.835938 83.46875 C 93.878906 83.574219 93.949219 83.640625 94.023438 83.644531 C 94.042969 83.652344 94.0625 83.652344 94.082031 83.652344 C 94.15625 83.652344 94.226562 83.621094 94.289062 83.554688 L 100.328125 74.082031 C 100.960938 73.023438 101.273438 71.527344 101.175781 70.027344 L 101.019531 69.753906 C 100.980469 69.375 100.847656 69.046875 100.652344 68.851562 C 100.257812 68.574219 99.882812 68.210938 99.539062 67.773438 C 99.171875 67.386719 98.816406 66.964844 98.480469 66.507812 C 98.359375 66.351562 98.210938 66.265625 98.058594 66.265625 Z M 98.152344 54.566406 C 98.140625 54.566406 98.128906 54.570312 98.117188 54.578125 C 98.085938 54.59375 98.0625 54.640625 98.054688 54.695312 L 98.054688 54.785156 C 98.066406 55.148438 98.046875 55.511719 98 55.863281 C 97.992188 55.992188 98.011719 56.121094 98.054688 56.226562 L 99.0625 59.023438 C 99.175781 59.3125 99.214844 59.671875 99.167969 60.015625 L 98.480469 64.707031 C 98.429688 64.863281 98.464844 65.046875 98.585938 65.246094 C 99.007812 65.871094 99.472656 66.414062 99.960938 66.871094 C 100.425781 67.410156 100.925781 67.863281 101.445312 68.222656 C 101.484375 68.261719 101.527344 68.285156 101.574219 68.285156 C 101.648438 68.28125 101.714844 68.226562 101.761719 68.128906 L 103.882812 64.882812 C 104.027344 64.660156 104.222656 64.558594 104.414062 64.609375 L 106.320312 64.882812 L 106.351562 64.882812 C 106.417969 64.882812 106.484375 64.851562 106.535156 64.789062 L 107.121094 64.246094 C 107.101562 64.183594 107.09375 64.113281 107.089844 64.039062 C 107.082031 63.9375 107.078125 63.851562 107.015625 63.796875 C 106.183594 62.910156 102.648438 59.230469 102.617188 59.195312 L 102.609375 59.195312 C 102.246094 58.8125 99.019531 55.457031 98.21875 54.601562 C 98.195312 54.574219 98.171875 54.5625 98.144531 54.566406 Z M 109.421875 52.976562 C 109.601562 52.976562 109.777344 53.074219 109.925781 53.25 L 113.15625 56.585938 C 113.210938 56.628906 113.265625 56.648438 113.324219 56.648438 C 113.402344 56.664062 113.480469 56.605469 113.527344 56.492188 L 121.476562 38.09375 C 121.71875 37.667969 121.824219 37.066406 121.757812 36.484375 C 121.671875 36.121094 121.488281 35.847656 121.265625 35.746094 L 121.210938 35.746094 L 119.304688 35.296875 C 119.25 35.296875 119.25 35.296875 119.199219 35.207031 C 119.140625 35.15625 119.101562 35.066406 119.089844 34.957031 C 119.082031 34.851562 119.101562 34.742188 119.144531 34.664062 C 119.824219 33.152344 121.722656 28.753906 121.742188 28.710938 C 121.84375 28.566406 121.902344 28.351562 121.902344 28.125 C 121.902344 27.898438 121.84375 27.683594 121.742188 27.539062 C 121.617188 27.367188 121.472656 27.246094 121.316406 27.179688 L 117.554688 26.191406 C 117.210938 26.101562 116.863281 26.339844 116.652344 26.8125 L 114.640625 31.503906 C 114.335938 32.179688 114.410156 33.140625 114.796875 33.667969 C 114.8125 33.664062 114.828125 33.679688 114.835938 33.703125 C 114.84375 33.738281 114.828125 33.796875 114.796875 33.859375 C 114.796875 33.859375 114.773438 33.898438 114.757812 33.898438 C 114.753906 33.898438 114.75 33.894531 114.75 33.890625 C 114.746094 33.878906 114.746094 33.867188 114.75 33.859375 L 113.742188 33.589844 L 112.246094 33.316406 C 111.859375 33.222656 111.46875 33.5 111.238281 34.035156 L 105.253906 47.929688 C 105.222656 48.023438 105.171875 48.089844 105.109375 48.109375 L 105.074219 48.109375 C 105.023438 48.109375 104.972656 48.074219 104.9375 48.011719 L 99.214844 42.0625 C 99.039062 41.882812 98.828125 41.828125 98.628906 41.914062 C 98.429688 42 98.257812 42.214844 98.15625 42.511719 C 97.960938 43.191406 98.097656 44.007812 98.472656 44.40625 L 98.632812 44.589844 C 98.695312 44.675781 98.734375 44.808594 98.738281 44.949219 L 98.578125 46.933594 C 98.582031 47.042969 98.535156 47.136719 98.46875 47.148438 C 98.449219 47.148438 98.433594 47.136719 98.417969 47.113281 L 98.367188 47.113281 L 97.519531 46.300781 C 97.195312 45.953125 96.808594 45.84375 96.4375 45.996094 C 96.066406 46.152344 95.75 46.550781 95.558594 47.113281 C 95.335938 47.550781 95.230469 48.125 95.257812 48.703125 C 95.289062 49.28125 95.453125 49.8125 95.71875 50.179688 C 95.792969 50.261719 95.863281 50.351562 95.929688 50.449219 L 100.222656 54.957031 C 101.628906 56.59375 103.492188 56.484375 104.832031 54.6875 C 105.132812 54.203125 105.523438 53.902344 105.941406 53.839844 C 106.246094 53.855469 106.542969 54.027344 106.789062 54.328125 C 107.113281 54.6875 107.53125 54.6875 107.851562 54.328125 L 108.910156 53.246094 C 109.058594 53.070312 109.234375 52.976562 109.414062 52.976562 Z M 109.421875 52.976562 "/>
<path style=" stroke:none;fill-rule:nonzero;fill:rgb(100%,100%,100%);fill-opacity:1;" d="M 5.832031 185.371094 L 18.210938 185.371094 L 18.210938 193.34375 L 0 193.34375 L 0 145.179688 L 5.828125 145.179688 Z M 33.371094 193.34375 C 33.085938 192.332031 32.894531 191.25 32.808594 190.136719 C 31.464844 192.703125 29.519531 194.125 27.5 194.007812 C 25.628906 194.121094 23.796875 193.035156 22.375 190.960938 C 21.054688 189.054688 20.308594 186.234375 20.34375 183.289062 C 20.242188 179.847656 21.175781 176.558594 22.824219 174.554688 C 24.476562 172.523438 26.863281 171.5 29.984375 171.476562 L 32.570312 171.476562 L 32.570312 169.425781 C 32.613281 167.992188 32.347656 166.582031 31.820312 165.457031 C 31.207031 164.382812 30.339844 163.835938 29.460938 163.96875 C 28.660156 163.886719 27.871094 164.296875 27.234375 165.125 C 26.691406 165.914062 26.394531 167.085938 26.429688 168.300781 L 20.8125 168.300781 C 20.8125 166.222656 21.207031 164.199219 21.9375 162.535156 C 22.757812 160.683594 23.859375 159.246094 25.125 158.386719 C 26.59375 157.351562 28.167969 156.839844 29.753906 156.878906 C 31.976562 156.675781 34.171875 157.859375 35.921875 160.203125 C 37.484375 162.5625 38.328125 166.003906 38.210938 169.550781 L 38.210938 185.066406 C 38.136719 187.710938 38.421875 190.351562 39.046875 192.777344 L 39.046875 193.339844 Z M 28.726562 186.695312 C 29.527344 186.707031 30.316406 186.386719 31.023438 185.753906 C 31.679688 185.195312 32.222656 184.3125 32.578125 183.222656 L 32.578125 177.070312 L 30.476562 177.070312 C 27.667969 177.070312 26.167969 178.722656 25.988281 182.03125 L 25.96875 182.59375 C 25.949219 183.710938 26.21875 184.785156 26.707031 185.535156 C 27.269531 186.351562 27.992188 186.765625 28.726562 186.695312 Z M 55.121094 189.707031 C 53.707031 192.59375 51.578125 194.1875 49.371094 194.007812 C 47.449219 194.226562 45.566406 193.019531 44.210938 190.699219 C 43.023438 188.496094 42.417969 185.269531 42.390625 181.007812 L 42.390625 157.550781 L 48.007812 157.550781 L 48.007812 180.675781 C 48.007812 184.402344 49.003906 186.265625 51 186.265625 C 52.90625 186.265625 54.214844 185.140625 54.925781 182.890625 L 54.925781 157.550781 L 60.5625 157.550781 L 60.5625 193.34375 L 55.277344 193.34375 Z M 69.972656 157.550781 L 70.148438 161.683594 C 71.59375 158.53125 73.839844 156.75 76.1875 156.886719 C 78.058594 156.640625 79.894531 157.871094 81.164062 160.230469 C 82.25 162.457031 82.808594 165.789062 82.835938 170.21875 L 82.835938 193.34375 L 77.21875 193.34375 L 77.21875 170.445312 C 77.300781 168.855469 77.023438 167.277344 76.441406 166.027344 C 75.722656 164.996094 74.789062 164.5 73.855469 164.65625 C 72.382812 164.554688 71 165.886719 70.300781 168.097656 L 70.300781 193.332031 L 64.683594 193.332031 L 64.683594 157.550781 Z M 95.839844 186.304688 C 96.761719 186.375 97.660156 185.855469 98.367188 184.851562 C 99.015625 183.871094 99.382812 182.457031 99.375 180.980469 L 104.640625 180.980469 C 104.640625 183.347656 104.234375 185.664062 103.476562 187.644531 C 102.703125 189.675781 101.617188 191.300781 100.335938 192.34375 C 98.964844 193.476562 97.457031 194.046875 95.933594 194.015625 C 93.257812 194.246094 90.65625 192.460938 88.820312 189.136719 C 87.085938 185.882812 86.214844 181.390625 86.214844 175.652344 L 86.214844 175.03125 C 86.070312 170.234375 86.996094 165.519531 88.800781 161.832031 C 90.617188 158.476562 93.21875 156.671875 95.894531 156.902344 C 98.214844 156.710938 100.488281 158.085938 102.222656 160.722656 C 103.835938 163.378906 104.714844 167.074219 104.640625 170.894531 L 99.375 170.894531 C 99.390625 169.226562 99.03125 167.609375 98.367188 166.378906 C 97.695312 165.207031 96.765625 164.574219 95.804688 164.640625 C 94.636719 164.527344 93.515625 165.445312 92.839844 167.074219 C 92.171875 168.695312 91.839844 171.324219 91.839844 174.964844 L 91.839844 175.957031 C 91.839844 179.640625 92.167969 182.289062 92.828125 183.902344 C 93.523438 185.535156 94.660156 186.441406 95.839844 186.304688 Z M 113.335938 161.460938 C 114.683594 158.53125 116.761719 156.84375 118.949219 156.894531 C 123.511719 156.894531 125.824219 161.40625 125.890625 170.425781 L 125.890625 193.355469 L 120.273438 193.355469 L 120.273438 170.683594 C 120.351562 169.058594 120.074219 167.4375 119.496094 166.136719 C 118.796875 165.039062 117.855469 164.503906 116.910156 164.664062 C 115.453125 164.492188 114.066406 165.75 113.335938 167.90625 L 113.335938 193.347656 L 107.71875 193.347656 L 107.71875 142.53125 L 113.335938 142.53125 Z M 130.496094 193.355469 L 130.496094 145.179688 L 140.410156 145.179688 C 143.84375 145.179688 146.449219 146.296875 148.222656 148.535156 C 150.019531 150.855469 151.019531 154.546875 150.886719 158.378906 C 150.910156 160.59375 150.535156 162.765625 149.816406 164.609375 C 149.089844 166.425781 148.050781 167.808594 146.84375 168.5625 C 148.207031 169.089844 149.421875 170.410156 150.273438 172.304688 C 151.128906 174.292969 151.570312 176.714844 151.527344 179.183594 C 151.6875 183.195312 150.722656 187.097656 148.925781 189.707031 C 147.1875 192.089844 144.714844 193.300781 141.5 193.347656 Z M 136.328125 172.378906 L 136.328125 185.371094 L 141.324219 185.371094 C 142.480469 185.492188 143.621094 184.898438 144.539062 183.703125 C 145.324219 182.546875 145.75 180.847656 145.699219 179.085938 C 145.699219 174.675781 144.355469 172.4375 141.671875 172.371094 Z M 136.328125 165.371094 L 140.640625 165.371094 C 143.585938 165.28125 145.054688 163.285156 145.054688 159.382812 C 145.152344 157.59375 144.738281 155.835938 143.9375 154.667969 C 142.878906 153.566406 141.644531 153.0625 140.410156 153.226562 L 136.328125 153.226562 Z M 167.722656 193.355469 C 167.433594 192.34375 167.246094 191.261719 167.15625 190.148438 C 165.8125 192.71875 163.867188 194.136719 161.847656 194.019531 C 159.976562 194.136719 158.148438 193.046875 156.722656 190.976562 C 155.398438 189.066406 154.652344 186.242188 154.691406 183.289062 C 154.589844 179.847656 155.523438 176.558594 157.171875 174.554688 C 158.824219 172.527344 161.210938 171.5 164.332031 171.480469 L 166.917969 171.480469 L 166.917969 169.425781 C 166.960938 167.992188 166.695312 166.582031 166.167969 165.457031 C 165.550781 164.382812 164.6875 163.839844 163.808594 163.96875 C 163.007812 163.890625 162.21875 164.300781 161.582031 165.125 C 161.039062 165.917969 160.742188 167.089844 160.773438 168.300781 L 155.160156 168.300781 C 155.15625 166.222656 155.554688 164.203125 156.285156 162.539062 C 157.105469 160.683594 158.207031 159.25 159.472656 158.386719 C 160.9375 157.351562 162.511719 156.839844 164.097656 156.882812 C 166.324219 156.679688 168.519531 157.859375 170.269531 160.207031 C 171.832031 162.5625 172.675781 166.007812 172.558594 169.554688 L 172.558594 185.070312 C 172.484375 187.714844 172.769531 190.351562 173.394531 192.777344 L 173.394531 193.339844 Z M 163.078125 186.707031 C 163.875 186.722656 164.664062 186.398438 165.371094 185.765625 C 166.027344 185.207031 166.570312 184.324219 166.925781 183.234375 L 166.925781 177.082031 L 164.828125 177.082031 C 162.015625 177.082031 160.519531 178.734375 160.335938 182.042969 L 160.316406 182.605469 C 160.296875 183.722656 160.566406 184.796875 161.054688 185.550781 C 161.617188 186.355469 162.339844 186.765625 163.070312 186.695312 Z M 188.265625 183.464844 C 188.265625 182.285156 187.867188 181.210938 187.242188 180.699219 C 186.207031 179.824219 185.105469 179.214844 183.964844 178.894531 C 178.960938 177.109375 176.460938 173.492188 176.460938 168.046875 C 176.449219 164.914062 177.308594 161.960938 178.785156 160.089844 C 180.527344 157.855469 182.675781 156.722656 184.859375 156.898438 C 187.144531 156.699219 189.40625 157.828125 191.265625 160.105469 C 192.8125 162.058594 193.707031 165.167969 193.664062 168.445312 L 188.046875 168.445312 C 188.070312 167.179688 187.792969 165.957031 187.269531 165.054688 C 186.601562 164.070312 185.722656 163.585938 184.839844 163.714844 C 184.054688 163.628906 183.277344 164.015625 182.644531 164.804688 C 182.144531 165.472656 181.855469 166.5 181.867188 167.582031 C 181.867188 168.648438 182.207031 169.625 182.75 170.148438 C 183.679688 171 184.691406 171.570312 185.734375 171.835938 C 186.9375 172.21875 188.117188 172.753906 189.273438 173.4375 C 192.238281 175.292969 193.722656 178.5 193.722656 183.066406 C 193.746094 186.25 192.816406 189.238281 191.253906 190.988281 C 189.371094 193.125 187.136719 194.183594 184.878906 194.015625 C 183.261719 194.066406 181.660156 193.519531 180.183594 192.410156 C 178.898438 191.457031 177.789062 189.9375 176.964844 188.011719 C 176.210938 186.261719 175.800781 184.144531 175.800781 181.972656 L 181.125 181.972656 C 181.125 183.496094 181.535156 184.933594 182.234375 185.878906 C 183.039062 186.84375 184.011719 187.320312 184.992188 187.234375 C 185.851562 187.335938 186.707031 186.96875 187.433594 186.191406 C 187.960938 185.574219 188.273438 184.546875 188.261719 183.453125 Z M 207.023438 194.019531 C 204.230469 194.210938 201.515625 192.46875 199.492188 189.191406 C 197.503906 185.777344 196.449219 181.105469 196.582031 176.308594 L 196.582031 175.382812 C 196.546875 172.050781 196.964844 168.753906 197.804688 165.742188 C 198.558594 163.03125 199.765625 160.753906 201.273438 159.199219 C 202.824219 157.640625 204.597656 156.847656 206.398438 156.902344 C 208.953125 156.675781 211.4375 158.371094 213.191406 161.53125 C 214.84375 164.621094 215.671875 168.996094 215.671875 174.667969 L 215.671875 178.570312 L 202.277344 178.570312 C 202.402344 180.722656 202.984375 182.722656 203.917969 184.195312 C 204.871094 185.628906 206.113281 186.386719 207.386719 186.304688 C 209.359375 186.457031 211.253906 184.964844 212.460938 182.300781 L 215.21875 187.550781 C 214.347656 189.625 213.171875 191.265625 211.804688 192.304688 C 210.300781 193.464844 208.667969 194.042969 207.019531 194.007812 Z M 206.382812 164.640625 C 205.355469 164.578125 204.367188 165.277344 203.671875 166.5625 C 202.90625 168.117188 202.441406 170.03125 202.339844 172.050781 L 210.148438 172.050781 L 210.148438 171.292969 C 210.191406 169.496094 209.832031 167.738281 209.140625 166.378906 C 208.40625 165.15625 207.402344 164.523438 206.375 164.628906 Z M 206.382812 164.640625 "/>
</g>
</svg>
