<?xml version="1.0" encoding="UTF-8"?>
<svg xmlns="http://www.w3.org/2000/svg" xmlns:xlink="http://www.w3.org/1999/xlink" width="216pt" height="229pt" viewBox="0 0 216 229" version="1.1">
<defs>
<filter id="alpha" filterUnits="objectBoundingBox" x="0%" y="0%" width="100%" height="100%">
  <feColorMatrix type="matrix" in="SourceGraphic" values="0 0 0 0 1 0 0 0 0 1 0 0 0 0 1 0 0 0 1 0"/>
</filter>
<mask id="mask0">
  <g filter="url(#alpha)">
<rect x="0" y="0" width="216" height="229" style="fill:rgb(0%,0%,0%);fill-opacity:0.501961;stroke:none;"/>
  </g>
</mask>
<clipPath id="clip1">
  <rect x="0" y="0" width="216" height="229"/>
</clipPath>
<g id="surface5" clip-path="url(#clip1)">
<path style=" stroke:none;fill-rule:nonzero;fill:rgb(100%,100%,100%);fill-opacity:1;" d="M 61.25 224.160156 C 61.207031 225.476562 60.625 226.71875 59.636719 227.589844 C 58.5625 228.460938 57.203125 228.90625 55.816406 228.839844 C 54.261719 228.914062 52.757812 228.273438 51.738281 227.09375 C 50.683594 225.726562 50.160156 224.023438 50.261719 222.296875 L 50.261719 221.472656 C 50.234375 220.292969 50.46875 219.125 50.945312 218.046875 C 51.359375 217.109375 52.039062 216.316406 52.902344 215.769531 C 53.796875 215.230469 54.820312 214.957031 55.863281 214.980469 C 57.230469 214.914062 58.570312 215.359375 59.625 216.230469 C 60.609375 217.136719 61.199219 218.394531 61.269531 219.734375 L 58.492188 219.734375 C 58.492188 219.035156 58.234375 218.359375 57.765625 217.839844 C 57.226562 217.40625 56.546875 217.195312 55.859375 217.25 C 55.039062 217.199219 54.253906 217.574219 53.78125 218.246094 C 53.25 219.1875 53.003906 220.257812 53.070312 221.335938 L 53.070312 222.355469 C 52.992188 223.460938 53.21875 224.570312 53.734375 225.550781 C 54.199219 226.242188 55 226.625 55.828125 226.5625 C 56.519531 226.617188 57.207031 226.40625 57.75 225.972656 C 58.214844 225.480469 58.476562 224.828125 58.476562 224.152344 Z M 81.882812 215.164062 L 81.882812 224.050781 C 81.949219 225.363281 81.445312 226.640625 80.5 227.550781 C 79.453125 228.457031 78.097656 228.917969 76.714844 228.84375 C 75.351562 228.914062 74.011719 228.46875 72.964844 227.589844 C 72.015625 226.703125 71.5 225.449219 71.546875 224.152344 L 71.546875 215.164062 L 74.328125 215.164062 L 74.328125 224.066406 C 74.261719 224.773438 74.492188 225.472656 74.960938 226.003906 C 75.445312 226.429688 76.074219 226.644531 76.71875 226.609375 C 78.28125 226.609375 79.074219 225.785156 79.097656 224.144531 L 79.097656 215.164062 Z M 97.757812 223.710938 L 95.554688 223.710938 L 95.554688 228.65625 L 92.777344 228.65625 L 92.777344 215.164062 L 97.785156 215.164062 C 99.101562 215.078125 100.40625 215.457031 101.472656 216.230469 C 102.351562 216.976562 102.828125 218.089844 102.761719 219.238281 C 102.792969 220.050781 102.585938 220.851562 102.164062 221.542969 C 101.71875 222.199219 101.089844 222.710938 100.355469 223.011719 L 103.273438 228.523438 L 103.273438 228.652344 L 100.289062 228.652344 Z M 95.546875 221.453125 L 97.785156 221.453125 C 98.375 221.488281 98.953125 221.300781 99.40625 220.921875 C 99.800781 220.535156 100.011719 220 99.980469 219.453125 C 100.011719 218.898438 99.816406 218.355469 99.4375 217.949219 C 98.980469 217.550781 98.382812 217.355469 97.777344 217.402344 L 95.554688 217.402344 Z M 120.472656 225.105469 C 120.496094 224.632812 120.289062 224.179688 119.914062 223.894531 C 119.296875 223.5 118.621094 223.199219 117.914062 223.003906 C 117.128906 222.761719 116.363281 222.453125 115.628906 222.082031 C 114.277344 221.515625 113.382812 220.214844 113.335938 218.75 C 113.328125 218.050781 113.542969 217.367188 113.953125 216.800781 C 114.40625 216.195312 115.019531 215.730469 115.722656 215.460938 C 116.546875 215.128906 117.425781 214.964844 118.3125 214.976562 C 119.199219 214.960938 120.082031 215.140625 120.890625 215.5 C 121.605469 215.816406 122.214844 216.328125 122.648438 216.980469 C 123.066406 217.625 123.285156 218.378906 123.273438 219.148438 L 120.496094 219.148438 C 120.523438 218.601562 120.3125 218.074219 119.910156 217.707031 C 119.445312 217.339844 118.863281 217.15625 118.269531 217.191406 C 117.710938 217.15625 117.15625 217.308594 116.6875 217.621094 C 116.328125 217.882812 116.117188 218.304688 116.125 218.75 C 116.136719 219.210938 116.386719 219.628906 116.785156 219.855469 C 117.394531 220.222656 118.050781 220.503906 118.734375 220.6875 C 120.007812 221.003906 121.191406 221.609375 122.191406 222.460938 C 122.90625 223.148438 123.296875 224.101562 123.273438 225.09375 C 123.3125 226.171875 122.816406 227.199219 121.949219 227.835938 C 120.898438 228.546875 119.648438 228.898438 118.382812 228.832031 C 117.40625 228.847656 116.441406 228.65625 115.542969 228.269531 C 114.757812 227.945312 114.082031 227.402344 113.59375 226.707031 C 113.140625 226.03125 112.902344 225.226562 112.917969 224.410156 L 115.703125 224.410156 C 115.703125 225.898438 116.59375 226.644531 118.371094 226.644531 C 118.917969 226.675781 119.457031 226.535156 119.917969 226.242188 C 120.285156 225.984375 120.492188 225.558594 120.476562 225.113281 Z M 144.820312 222.199219 C 144.851562 223.40625 144.609375 224.601562 144.121094 225.699219 C 143.695312 226.65625 142.996094 227.464844 142.109375 228.023438 C 141.203125 228.578125 140.164062 228.859375 139.105469 228.839844 C 138.050781 228.859375 137.015625 228.578125 136.113281 228.035156 C 135.226562 227.480469 134.519531 226.679688 134.082031 225.730469 C 133.582031 224.652344 133.332031 223.476562 133.347656 222.289062 L 133.347656 221.621094 C 133.324219 220.417969 133.566406 219.21875 134.058594 218.121094 C 134.492188 217.164062 135.199219 216.355469 136.089844 215.796875 C 136.992188 215.25 138.03125 214.96875 139.085938 214.988281 C 140.140625 214.96875 141.179688 215.25 142.082031 215.796875 C 142.96875 216.355469 143.675781 217.164062 144.109375 218.121094 C 144.605469 219.21875 144.847656 220.414062 144.824219 221.617188 Z M 142.003906 221.589844 C 142.078125 220.464844 141.8125 219.339844 141.246094 218.363281 C 140.761719 217.648438 139.941406 217.234375 139.078125 217.277344 C 138.21875 217.238281 137.402344 217.652344 136.917969 218.363281 C 136.351562 219.328125 136.082031 220.4375 136.152344 221.554688 L 136.152344 222.214844 C 136.085938 223.332031 136.351562 224.449219 136.910156 225.417969 C 137.382812 226.164062 138.214844 226.597656 139.097656 226.558594 C 139.957031 226.597656 140.769531 226.179688 141.246094 225.460938 C 141.804688 224.492188 142.070312 223.378906 142.003906 222.261719 Z M 162.453125 225.113281 C 162.476562 224.644531 162.269531 224.191406 161.894531 223.90625 C 161.277344 223.507812 160.601562 223.210938 159.894531 223.015625 C 159.105469 222.773438 158.339844 222.464844 157.609375 222.09375 C 156.25 221.527344 155.347656 220.21875 155.304688 218.75 C 155.292969 218.050781 155.511719 217.367188 155.917969 216.800781 C 156.375 216.195312 156.988281 215.730469 157.691406 215.460938 C 158.515625 215.128906 159.394531 214.964844 160.28125 214.976562 C 161.167969 214.960938 162.050781 215.140625 162.859375 215.5 C 163.574219 215.816406 164.183594 216.328125 164.617188 216.980469 C 165.035156 217.625 165.253906 218.378906 165.242188 219.148438 L 162.453125 219.148438 C 162.480469 218.601562 162.269531 218.074219 161.867188 217.707031 C 161.402344 217.339844 160.820312 217.15625 160.226562 217.191406 C 159.667969 217.15625 159.113281 217.308594 158.644531 217.621094 C 158.285156 217.882812 158.074219 218.304688 158.082031 218.75 C 158.09375 219.210938 158.34375 219.628906 158.742188 219.855469 C 159.351562 220.222656 160.007812 220.503906 160.691406 220.6875 C 161.964844 221.003906 163.148438 221.609375 164.148438 222.460938 C 164.863281 223.148438 165.253906 224.101562 165.230469 225.09375 C 165.269531 226.171875 164.773438 227.199219 163.90625 227.835938 C 162.855469 228.546875 161.605469 228.898438 160.339844 228.832031 C 159.367188 228.84375 158.398438 228.652344 157.507812 228.261719 C 156.722656 227.9375 156.046875 227.394531 155.558594 226.703125 C 155.105469 226.023438 154.871094 225.226562 154.886719 224.410156 L 157.671875 224.410156 C 157.671875 225.898438 158.5625 226.644531 160.339844 226.644531 C 160.886719 226.675781 161.425781 226.535156 161.886719 226.242188 C 162.253906 225.984375 162.46875 225.5625 162.453125 225.113281 Z M 162.453125 225.113281 "/>
</g>
</defs>
<g id="surface1">
<use xlink:href="#surface5" mask="url(#mask0)"/>
<path style=" stroke:none;fill-rule:nonzero;fill:rgb(100%,100%,100%);fill-opacity:1;" d="M 27.933594 178.226562 C 28.027344 176.488281 27.257812 174.816406 25.878906 173.757812 C 23.59375 172.292969 21.101562 171.183594 18.484375 170.46875 C 15.574219 169.578125 12.742188 168.441406 10.03125 167.058594 C 4.371094 164 1.539062 159.878906 1.539062 154.699219 C 1.503906 152.113281 2.304688 149.585938 3.816406 147.488281 C 5.488281 145.257812 7.753906 143.542969 10.351562 142.539062 C 13.394531 141.316406 16.644531 140.714844 19.921875 140.765625 C 23.195312 140.707031 26.441406 141.367188 29.433594 142.699219 C 32.070312 143.867188 34.320312 145.761719 35.917969 148.164062 C 37.46875 150.542969 38.277344 153.328125 38.234375 156.171875 L 27.964844 156.171875 C 28.078125 154.164062 27.285156 152.210938 25.808594 150.847656 C 24.089844 149.488281 21.933594 148.808594 19.746094 148.945312 C 17.675781 148.820312 15.617188 149.378906 13.894531 150.539062 C 12.546875 151.503906 11.761719 153.074219 11.800781 154.730469 C 11.839844 156.425781 12.769531 157.972656 14.246094 158.808594 C 16.488281 160.171875 18.914062 161.207031 21.453125 161.886719 C 27.292969 163.644531 31.550781 165.828125 34.21875 168.429688 C 36.863281 170.964844 38.316406 174.496094 38.226562 178.15625 C 38.386719 182.144531 36.550781 185.953125 33.332031 188.316406 C 29.457031 190.949219 24.828125 192.242188 20.152344 191.996094 C 16.546875 192.046875 12.976562 191.328125 9.671875 189.890625 C 6.773438 188.6875 4.273438 186.6875 2.46875 184.121094 C 0.792969 181.609375 -0.0742188 178.644531 -0.015625 175.625 L 10.289062 175.625 C 10.289062 181.128906 13.574219 183.878906 20.148438 183.878906 C 22.164062 183.996094 24.164062 183.476562 25.863281 182.390625 C 27.21875 181.445312 27.996094 179.875 27.933594 178.226562 Z M 56.378906 145.140625 L 56.378906 154.253906 L 62.710938 154.253906 L 62.710938 161.507812 L 56.378906 161.507812 L 56.378906 180.003906 C 56.28125 181.050781 56.5625 182.09375 57.164062 182.949219 C 58.003906 183.648438 59.09375 183.972656 60.175781 183.839844 C 61.152344 183.851562 62.125 183.769531 63.085938 183.601562 L 63.085938 191.101562 C 61.144531 191.695312 59.125 191.996094 57.097656 191.992188 C 50.160156 191.992188 46.621094 188.488281 46.484375 181.476562 L 46.484375 161.511719 L 41.078125 161.511719 L 41.078125 154.253906 L 46.484375 154.253906 L 46.484375 145.144531 Z M 89.683594 191.308594 C 89.179688 190.257812 88.84375 189.136719 88.691406 187.984375 C 86.328125 190.644531 82.898438 192.113281 79.34375 191.992188 C 76.046875 192.113281 72.824219 190.988281 70.316406 188.839844 C 67.988281 186.867188 66.675781 183.949219 66.738281 180.894531 C 66.5625 177.335938 68.207031 173.929688 71.105469 171.855469 C 74.015625 169.753906 78.21875 168.691406 83.71875 168.667969 L 88.269531 168.667969 L 88.269531 166.546875 C 88.347656 165.0625 87.878906 163.601562 86.953125 162.4375 C 85.867188 161.324219 84.339844 160.761719 82.792969 160.894531 C 81.386719 160.8125 79.996094 161.238281 78.875 162.09375 C 77.917969 162.910156 77.394531 164.125 77.453125 165.382812 L 67.5625 165.382812 C 67.5625 163.230469 68.261719 161.140625 69.550781 159.421875 C 70.996094 157.503906 72.9375 156.015625 75.167969 155.125 C 77.746094 154.054688 80.519531 153.523438 83.3125 153.566406 C 87.234375 153.355469 91.097656 154.578125 94.179688 157.007812 C 96.929688 159.449219 98.414062 163.011719 98.210938 166.683594 L 98.210938 182.746094 C 98.078125 185.484375 98.582031 188.214844 99.683594 190.726562 L 99.683594 191.308594 Z M 81.503906 184.425781 C 82.910156 184.4375 84.296875 184.101562 85.542969 183.449219 C 86.699219 182.871094 87.65625 181.957031 88.285156 180.828125 L 88.285156 174.457031 L 84.585938 174.457031 C 79.632812 174.457031 77 176.167969 76.679688 179.59375 L 76.644531 180.175781 C 76.613281 181.332031 77.085938 182.445312 77.945312 183.222656 C 78.933594 184.066406 80.207031 184.496094 81.503906 184.425781 Z M 126.613281 163.535156 C 125.441406 163.367188 124.253906 163.277344 123.070312 163.265625 C 119.324219 163.265625 116.871094 164.53125 115.707031 167.066406 L 115.707031 191.3125 L 105.816406 191.3125 L 105.816406 154.253906 L 115.164062 154.253906 L 115.4375 158.667969 C 116.992188 155.535156 120.191406 153.554688 123.6875 153.566406 C 124.730469 153.558594 125.769531 153.710938 126.769531 154.011719 Z M 144.929688 145.148438 L 144.929688 154.257812 L 151.261719 154.257812 L 151.261719 161.515625 L 144.929688 161.515625 L 144.929688 180.003906 C 144.832031 181.050781 145.109375 182.09375 145.714844 182.949219 C 146.554688 183.648438 147.644531 183.972656 148.726562 183.839844 C 149.703125 183.851562 150.675781 183.769531 151.636719 183.601562 L 151.636719 191.101562 C 149.695312 191.695312 147.675781 191.996094 145.648438 191.992188 C 138.710938 191.992188 135.171875 188.488281 135.035156 181.476562 L 135.035156 161.511719 L 129.628906 161.511719 L 129.628906 154.253906 L 135.035156 154.253906 L 135.035156 145.144531 Z M 173.820312 192 C 168.902344 192.195312 164.117188 190.390625 160.554688 187 C 157.0625 183.46875 155.207031 178.636719 155.4375 173.675781 L 155.4375 172.71875 C 155.375 169.269531 156.113281 165.851562 157.59375 162.734375 C 158.921875 159.925781 161.046875 157.570312 163.703125 155.960938 C 166.433594 154.347656 169.558594 153.523438 172.730469 153.582031 C 177.226562 153.347656 181.601562 155.101562 184.695312 158.375 C 187.605469 161.574219 189.058594 166.105469 189.058594 171.972656 L 189.058594 176.003906 L 165.472656 176.003906 C 165.695312 178.234375 166.726562 180.304688 168.367188 181.828125 C 170.046875 183.316406 172.234375 184.101562 174.476562 184.019531 C 177.953125 184.175781 181.285156 182.632812 183.410156 179.875 L 188.273438 185.324219 C 186.734375 187.464844 184.65625 189.164062 182.246094 190.234375 C 179.605469 191.433594 176.730469 192.03125 173.828125 191.992188 Z M 172.691406 161.585938 C 170.886719 161.519531 169.140625 162.246094 167.914062 163.574219 C 166.570312 165.183594 165.753906 167.167969 165.570312 169.257812 L 179.332031 169.257812 L 179.332031 168.472656 C 179.410156 166.609375 178.773438 164.789062 177.550781 163.378906 C 176.257812 162.121094 174.496094 161.46875 172.695312 161.582031 Z M 215.480469 163.539062 C 214.300781 163.367188 213.109375 163.277344 211.917969 163.265625 C 208.175781 163.265625 205.722656 164.53125 204.558594 167.066406 L 204.558594 191.3125 L 194.671875 191.3125 L 194.671875 154.253906 L 204.023438 154.253906 L 204.296875 158.667969 C 205.847656 155.535156 209.046875 153.554688 212.546875 153.566406 C 213.589844 153.558594 214.628906 153.710938 215.625 154.011719 Z M 215.480469 163.539062 "/>
<path style=" stroke:none;fill-rule:nonzero;fill:rgb(44.313725%,34.901961%,75.686275%);fill-opacity:1;" d="M 144.855469 98.695312 L 71.996094 98.695312 C 64.878906 98.6875 59.109375 92.917969 59.101562 85.792969 L 59.101562 12.902344 C 59.109375 5.78125 64.878906 0.0078125 71.996094 0 L 144.855469 0 C 151.972656 0.0078125 157.742188 5.78125 157.75 12.902344 L 157.75 85.792969 C 157.742188 92.917969 151.972656 98.6875 144.855469 98.695312 Z M 89.433594 61.660156 C 89.316406 61.65625 89.195312 61.683594 89.085938 61.734375 L 88.910156 61.910156 C 87.308594 62.464844 86.101562 63.804688 85.71875 65.457031 L 81.640625 80.359375 C 81.5625 80.449219 81.542969 80.582031 81.597656 80.695312 C 81.628906 80.792969 81.714844 80.871094 81.820312 80.886719 L 81.996094 80.886719 C 82.191406 80.914062 82.386719 80.847656 82.527344 80.710938 L 93.875 70.246094 C 95.058594 69.164062 95.652344 67.582031 95.46875 65.988281 L 95.117188 65.632812 C 95.105469 65.171875 94.828125 64.757812 94.40625 64.570312 C 93.660156 64.222656 92.949219 63.808594 92.277344 63.328125 C 91.925781 63.0625 91.609375 62.835938 91.3125 62.617188 C 91.015625 62.402344 90.691406 62.175781 90.34375 61.910156 C 90.0625 61.761719 89.753906 61.675781 89.433594 61.660156 Z M 89.925781 49.0625 C 89.875 49.0625 89.800781 49.136719 89.796875 49.140625 L 89.796875 49.316406 C 89.792969 49.570312 89.757812 49.820312 89.695312 50.0625 C 89.652344 50.226562 89.625 50.390625 89.617188 50.558594 C 89.621094 50.628906 89.652344 50.695312 89.707031 50.738281 C 89.761719 50.777344 89.796875 50.84375 89.796875 50.914062 L 91.75 53.929688 C 91.976562 54.234375 92.042969 54.632812 91.925781 54.992188 L 90.683594 60.136719 C 90.609375 60.203125 90.589844 60.3125 90.640625 60.402344 C 90.699219 60.5 90.773438 60.589844 90.859375 60.664062 C 92.5 61.933594 94.285156 63.007812 96.175781 63.863281 L 96.1875 63.863281 C 96.378906 63.882812 96.570312 63.820312 96.707031 63.683594 L 100.605469 60.136719 C 100.890625 59.863281 101.28125 59.734375 101.667969 59.78125 L 105.214844 60.136719 C 105.285156 60.136719 105.351562 60.101562 105.394531 60.046875 C 105.4375 59.992188 105.5 59.960938 105.570312 59.960938 L 106.8125 59.960938 C 106.835938 59.765625 106.773438 59.570312 106.636719 59.425781 C 105.070312 58.382812 98.371094 54.324219 98.300781 54.28125 C 98.234375 54.242188 91.550781 50.191406 89.96875 49.136719 C 89.972656 49.113281 89.964844 49.089844 89.949219 49.070312 C 89.945312 49.066406 89.9375 49.0625 89.925781 49.0625 Z M 111.042969 47.277344 C 111.367188 47.273438 111.683594 47.367188 111.953125 47.542969 L 117.980469 51.265625 L 118 51.265625 C 118.242188 51.289062 118.488281 51.226562 118.691406 51.089844 L 133.589844 30.871094 C 134.085938 30.390625 134.296875 29.6875 134.144531 29.011719 C 133.996094 28.609375 133.652344 28.308594 133.234375 28.207031 L 133.054688 28.207031 L 129.507812 27.675781 L 129.332031 27.5 C 129.1875 27.425781 129.105469 27.355469 129.109375 27.339844 C 129.113281 27.320312 129.117188 27.328125 129.132812 27.328125 C 129.394531 27.40625 129.640625 27.523438 129.863281 27.683594 L 129.863281 27.503906 C 131.074219 25.777344 134.503906 21.140625 134.648438 20.941406 C 134.839844 20.800781 134.96875 20.59375 135 20.359375 C 135.035156 20.125 134.972656 19.886719 134.828125 19.699219 L 134.648438 19.519531 C 134.480469 19.300781 134.21875 19.171875 133.941406 19.167969 L 126.847656 18.101562 C 126.175781 18.035156 125.515625 18.300781 125.074219 18.808594 L 121.351562 23.953125 C 120.828125 24.691406 120.984375 25.714844 121.707031 26.261719 C 121.792969 26.261719 121.832031 26.261719 121.839844 26.277344 C 121.847656 26.292969 121.804688 26.339844 121.707031 26.4375 C 121.707031 26.4375 121.628906 26.515625 121.574219 26.515625 C 121.5625 26.519531 121.550781 26.511719 121.542969 26.5 C 121.53125 26.480469 121.527344 26.460938 121.527344 26.4375 L 119.578125 26.082031 L 116.742188 25.730469 C 116.617188 25.699219 116.484375 25.683594 116.355469 25.683594 C 115.746094 25.683594 115.167969 25.960938 114.792969 26.441406 L 103.625 41.695312 C 103.5 41.816406 103.371094 41.945312 103.246094 41.945312 C 103.1875 41.945312 103.128906 41.917969 103.085938 41.871094 L 102.90625 41.871094 L 92.09375 35.308594 C 91.863281 35.195312 91.609375 35.132812 91.351562 35.132812 C 90.84375 35.117188 90.375 35.390625 90.144531 35.839844 C 89.96875 36.214844 89.921875 36.636719 90.011719 37.039062 C 90.078125 37.4375 90.324219 37.777344 90.675781 37.972656 L 91.03125 38.148438 C 91.207031 38.148438 91.207031 38.332031 91.207031 38.503906 L 90.855469 40.632812 C 90.859375 40.757812 90.773438 40.867188 90.648438 40.882812 C 90.589844 40.878906 90.535156 40.855469 90.496094 40.808594 L 90.320312 40.808594 L 88.722656 39.921875 C 88.34375 39.679688 87.902344 39.554688 87.449219 39.5625 C 85.867188 39.695312 84.621094 40.972656 84.535156 42.5625 C 84.5625 43.191406 84.859375 43.78125 85.355469 44.175781 L 85.710938 44.53125 L 93.6875 49.496094 C 94.902344 50.304688 96.328125 50.730469 97.785156 50.722656 C 99.453125 50.722656 101.074219 50.167969 102.390625 49.140625 C 102.953125 48.566406 103.71875 48.234375 104.523438 48.21875 C 105.105469 48.214844 105.667969 48.414062 106.113281 48.785156 C 106.714844 49.144531 107.464844 49.144531 108.066406 48.785156 L 110.015625 47.542969 C 110.335938 47.378906 110.6875 47.285156 111.050781 47.277344 Z M 111.042969 47.277344 "/>
</g>
</svg>
